<svg width="28" height="28" viewBox="0 0 28 28" fill="none" xmlns="http://www.w3.org/2000/svg">

<g clip-path="url(#clip0_4332_10795)">
<path d="M23.0629 8.97536C25.5489 8.97536 27.5643 7.02884 27.5643 4.62769C27.5643 2.22655 25.5489 0.280029 23.0629 0.280029C20.5768 0.280029 18.5614 2.22655 18.5614 4.62769C18.5614 7.02884 20.5768 8.97536 23.0629 8.97536Z" fill="#66B6FF" />
<path d="M4.78148 18.3869C7.26757 18.3869 9.28294 16.4403 9.28294 14.0392C9.28294 11.638 7.26757 9.69153 4.78148 9.69153C2.2954 9.69153 0.280029 11.638 0.280029 14.0392C0.280029 16.4403 2.2954 18.3869 4.78148 18.3869Z" fill="#66B6FF"/>
<path d="M27.7201 23.3724C27.7201 25.7735 25.7047 27.72 23.2186 27.72C20.7325 27.72 18.7172 25.7735 18.7172 23.3724C18.7172 20.9712 20.7325 19.0247 23.2186 19.0247C25.7047 19.0247 27.7201 20.9712 27.7201 23.3724Z" fill="#66B6FF"/>
<path d="M8.84239 18.5205C10.2395 20.6674 12.7205 22.0082 15.8806 22.0082H17.2155C17.109 22.4466 17.0514 22.9028 17.0514 23.3724C17.0514 24.5943 17.433 25.7297 18.0861 26.675H15.6389C9.59397 26.675 5.12963 23.8349 3.02051 19.7483C3.57845 19.9088 4.16947 19.9961 4.78147 19.9961C6.33709 19.9961 7.75757 19.4385 8.84239 18.5205Z" fill="#07153A" />
<path d="M17.0966 6.14145H15.8802C12.748 6.14145 10.2823 7.47326 8.87873 9.58865C7.78907 8.65233 6.35448 8.08267 4.78111 8.08267C4.18484 8.08267 3.60915 8.16605 3.06371 8.3184C5.19059 4.27622 9.63516 1.47467 15.639 1.47467H17.8308C17.2386 2.38917 16.8953 3.46966 16.8953 4.62768C16.8953 5.15098 16.9655 5.6579 17.097 6.14145H17.0966Z" fill="#07153A"/>
</g>
<defs>
<clipPath id="clip0_4332_10795">
<rect width="28" height="28" fill="white"/>
</clipPath>
</defs>
</svg>
