<?xml version="1.0" encoding="UTF-8"?>
<svg id="Capa_2" data-name="Capa 2" xmlns="http://www.w3.org/2000/svg" viewBox="0 0 576.29 542.26">
  <defs>
    <style>
      .cls-1 {
        font-family: Poppins-Regular, Poppins;
        font-size: 26px;
      }

      .cls-1, .cls-2 {
        fill: #07153a;
      }

      .cls-3 {
        fill: none;
        stroke: #07153a;
        stroke-miterlimit: 10;
        stroke-width: 2px;
      }

      .cls-4 {
        fill: #e1e8f0;
      }

      .cls-2 {
        font-family: Poppins-Bold, Poppins;
        font-size: 28.85px;
        font-weight: 700;
      }
    </style>
  </defs>
  <g id="Capa_1-2" data-name="Capa 1">
    <g>
      <path class="cls-3" d="M39.96,72.63v49.58c0,6.52,5.28,11.8,11.8,11.8h42.52"/>
      <rect class="cls-4" width="575.8" height="72.62" rx="5.59" ry="5.59"/>
      <text class="cls-2" transform="translate(51.64 47.88)"><tspan x="0" y="0">Production Planning</tspan></text>
      <rect class="cls-4" x="94.18" y="101.4" width="482.11" height="72.62" rx="5.59" ry="5.59"/>
      <text class="cls-1" transform="translate(129.08 147.27)"><tspan x="0" y="0">Material Master Attributes for PP</tspan></text>
      <path class="cls-3" d="M39.96,92.27v122.01c0,6.52,5.28,11.8,11.8,11.8h42.52"/>
      <rect class="cls-4" x="94.18" y="193.46" width="482.11" height="72.62" rx="5.59" ry="5.59"/>
      <text class="cls-1" transform="translate(129.08 239.33)"><tspan x="0" y="0">Plant Attributes</tspan></text>
      <path class="cls-3" d="M39.96,184.33v122.01c0,6.52,5.28,11.8,11.8,11.8h42.52"/>
      <rect class="cls-4" x="94.18" y="285.52" width="482.11" height="72.62" rx="5.59" ry="5.59"/>
      <text class="cls-1" transform="translate(129.08 331.39)"><tspan x="0" y="0">Work Center Attributes</tspan></text>
      <path class="cls-3" d="M39.96,276.39v122.01c0,6.52,5.28,11.8,11.8,11.8h42.52"/>
      <rect class="cls-4" x="94.18" y="377.58" width="482.11" height="72.62" rx="5.59" ry="5.59"/>
      <text class="cls-1" transform="translate(129.08 423.45)"><tspan x="0" y="0">Bill of Materials</tspan></text>
      <path class="cls-3" d="M39.96,368.45v122.01c0,6.52,5.28,11.8,11.8,11.8h42.52"/>
      <rect class="cls-4" x="94.18" y="469.64" width="482.11" height="72.62" rx="5.59" ry="5.59"/>
      <text class="cls-1" transform="translate(129.08 515.51)"><tspan x="0" y="0">Routing Data</tspan></text>
      <text class="cls-1" transform="translate(367.7 48.79)"><tspan x="0" y="0">Master Data</tspan></text>
    </g>
  </g>
</svg>