<?xml version="1.0" encoding="UTF-8"?>
<svg id="Capa_2" data-name="Capa 2" xmlns="http://www.w3.org/2000/svg" viewBox="0 0 644.14 449.38">
  <defs>
    <style>
      .cls-1 {
        font-family: Poppins-Regular, Poppins;
        font-size: 26px;
      }

      .cls-1, .cls-2 {
        fill: #07153a;
      }

      .cls-3 {
        fill: none;
        stroke: #07153a;
        stroke-miterlimit: 10;
        stroke-width: 2px;
      }

      .cls-4 {
        fill: #e1e8f0;
      }

      .cls-2 {
        font-family: Poppins-Bold, Poppins;
        font-size: 28.85px;
        font-weight: 700;
      }
    </style>
  </defs>
  <g id="Capa_1-2" data-name="Capa 1">
    <g>
      <path class="cls-3" d="M46.92,71.81v49.58c0,6.52,5.28,11.8,11.8,11.8h42.52"/>
      <rect class="cls-4" width="644.14" height="72.62" rx="5.59" ry="5.59"/>
      <text class="cls-2" transform="translate(43.59 47.06)"><tspan x="0" y="0">Financial Accounting</tspan></text>
      <rect class="cls-4" x="101.13" y="100.58" width="485.27" height="72.62" rx="5.59" ry="5.59"/>
      <text class="cls-1" transform="translate(136.03 143.45)"><tspan x="0" y="0">General Ledger Line Items</tspan></text>
      <text class="cls-1" transform="translate(367.94 47.97)"><tspan x="0" y="0">Transactional data </tspan></text>
      <path class="cls-3" d="M46.92,91.45v122.01c0,6.52,5.28,11.8,11.8,11.8h42.52"/>
      <rect class="cls-4" x="101.13" y="192.64" width="485.27" height="72.62" rx="5.59" ry="5.59"/>
      <text class="cls-1" transform="translate(136.03 238.51)"><tspan x="0" y="0">Accounts Payable Line Items</tspan></text>
      <path class="cls-3" d="M46.92,183.51v122.01c0,6.52,5.28,11.8,11.8,11.8h42.52"/>
      <rect class="cls-4" x="101.13" y="284.7" width="485.27" height="72.62" rx="5.59" ry="5.59"/>
      <text class="cls-1" transform="translate(136.03 325.57)"><tspan x="0" y="0">Accounts Receivable Line Items</tspan></text>
      <path class="cls-3" d="M46.92,275.57v122.01c0,6.52,5.28,11.8,11.8,11.8h42.52"/>
      <rect class="cls-4" x="101.13" y="376.76" width="485.27" height="72.62" rx="5.59" ry="5.59"/>
    </g>
    <text class="cls-1" transform="translate(136.03 422.63)"><tspan x="0" y="0">Universal Journal Line Items</tspan></text>
  </g>
</svg>