<?xml version="1.0" encoding="UTF-8"?>
<svg id="Capa_2" data-name="Capa 2" xmlns="http://www.w3.org/2000/svg" viewBox="0 0 670.32 452.64">
  <defs>
    <style>
      .cls-1 {
        font-family: Poppins-Regular, Poppins;
        font-size: 26px;
      }

      .cls-1, .cls-2 {
        fill: #07153a;
      }

      .cls-3 {
        fill: none;
        stroke: #07153a;
        stroke-miterlimit: 10;
        stroke-width: 2px;
      }

      .cls-4 {
        fill: #e1e8f0;
      }

      .cls-2 {
        font-family: Poppins-Bold, Poppins;
        font-size: 28.85px;
        font-weight: 700;
      }
    </style>
  </defs>
  <g id="Capa_1-2" data-name="Capa 1">
    <g>
      <path class="cls-3" d="M43.63,72.63v49.58c0,6.52,5.28,11.8,11.8,11.8h42.52"/>
      <rect class="cls-4" width="670.32" height="72.62" rx="5.59" ry="5.59"/>
      <text class="cls-2" transform="translate(39.15 47.88)"><tspan x="0" y="0">Materials Management</tspan></text>
      <rect class="cls-4" x="97.85" y="103.84" width="389.97" height="72.62" rx="5.59" ry="5.59"/>
      <text class="cls-1" transform="translate(132.74 147.27)"><tspan x="0" y="0">Purchasing Data</tspan></text>
      <path class="cls-3" d="M43.63,92.27v122.01c0,6.52,5.28,11.8,11.8,11.8h42.52"/>
      <rect class="cls-4" x="97.85" y="195.9" width="389.97" height="72.62" rx="5.59" ry="5.59"/>
      <text class="cls-1" transform="translate(132.74 239.33)"><tspan x="0" y="0">Goods Movement</tspan></text>
      <path class="cls-3" d="M43.63,184.33v122.01c0,6.52,5.28,11.8,11.8,11.8h42.52"/>
      <rect class="cls-4" x="97.85" y="287.96" width="389.97" height="72.62" rx="5.59" ry="5.59"/>
      <text class="cls-1" transform="translate(132.74 331.39)"><tspan x="0" y="0">Stock Revaluation Data</tspan></text>
      <path class="cls-3" d="M43.63,276.39v122.01c0,6.52,5.28,11.8,11.8,11.8h42.52"/>
      <rect class="cls-4" x="97.85" y="380.02" width="389.97" height="72.62" rx="5.59" ry="5.59"/>
      <text class="cls-1" transform="translate(132.74 423.45)"><tspan x="0" y="0">Stock Overview</tspan></text>
      <text class="cls-1" transform="translate(403.18 48.79)"><tspan x="0" y="0">Transactional data </tspan></text>
    </g>
  </g>
</svg>